# xmcd
#
# Track frame offsets:
#	150
#	14096
#	28571
#	39073
#	52091
#	66590
#	77843
#	93147
#	109213
#	129913
#	146835
#	162580
#	173604
#	185236
#	199688
#	217364
#	230086
#	241353
#	252537
#	269709
#
# Disc length: 3800
#
# Revision: 3
# Processed by: cddbd v1.5.1PL0 Copyright (c) Steve Scherf et al.
# Submitted via: OrangeCD 5.2
# Normalized: r2:DSETVAR1
#
DISCID=370ed614
DTITLE=Various Artist - The Most Awesome Line Dancing Album 8
DYEAR=2003
DGENRE=Country
TTITLE0=George Ducas - Teardrops
TTITLE1=Eddie Rabbit - I Love A Rainy Night
TTITLE2=Glen Campbell - Livin' In A House Full Of Love
TTITLE3=Dean Miller - Wake Up And Smell The Whiskey
TTITLE4=Sandi West - Three Days
TTITLE5=Mel McDanie - Bordertown Woman
TTITLE6=Dean Miller - Nowhere USA
TTITLE7=Lacy J. Dalton - Lonesome (As The Night Is Long)
TTITLE8=Pussycat - Mississippi
TTITLE9=Mindy McCready - I Just Want Love
TTITLE10=Marsha Britton - Snap
TTITLE11=Shane Worley - Rosie's On A Roll
TTITLE12=Billy 'Crash' Craddock - Sea Cruise
TTITLE13=Steven Wayne Horton - Got A Lot Of Livin' To Do
TTITLE14=Eddy Raven - Sooner Or Later
TTITLE15=Wild Rose - Who Needs You
TTITLE16=Shenandoh - Dared If I Don't (Danged If I Do)
TTITLE17=Gene Watson - This Is My Year For Mexico
TTITLE18=Tanya Tucker - Time And Distance
TTITLE19=Verlon Thompson - Slow Goodbye
EXTD=
EXTT0=
EXTT1=
EXTT2=
EXTT3=
EXTT4=
EXTT5=
EXTT6=
EXTT7=
EXTT8=
EXTT9=
EXTT10=
EXTT11=
EXTT12=
EXTT13=
EXTT14=
EXTT15=
EXTT16=
EXTT17=
EXTT18=
EXTT19=
PLAYORDER=
